<svg width="32" height="33" viewBox="0 0 32 33" fill="none" xmlns="http://www.w3.org/2000/svg">
<path d="M24.687 16.0312H28.3287C29.5183 16.0312 30.4732 16.9881 30.4732 18.1621C30.4732 18.7491 30.2304 19.2878 29.842 19.6738C29.4535 20.0597 28.9194 20.301 28.3206 20.301H24.7518" stroke="#E3E3E3" stroke-width="1.4" stroke-miterlimit="10"/>
<path d="M17.3147 20.301H3.14454C1.95493 20.301 1 19.3441 1 18.1701C1 17.5831 1.24278 17.0444 1.63122 16.6584C2.01967 16.2725 2.55378 16.0312 3.15263 16.0312H17.3875" stroke="#E3E3E3" stroke-width="1.4" stroke-miterlimit="10"/>
<path d="M28.4097 20.293V24.2973C28.4097 27.0553 26.16 29.2988 23.3761 29.2988H8.09731C5.31346 29.2988 3.06372 27.0634 3.06372 24.2973V20.293" stroke="#E3E3E3" stroke-width="1.4" stroke-miterlimit="10"/>
<path d="M3.06372 16.0313V5.46562C3.06372 3.55189 4.62559 2 6.55163 2H8.89038C10.8164 2 12.3783 3.55189 12.3783 5.46562" stroke="#E3E3E3" stroke-width="1.4" stroke-miterlimit="10"/>
<path d="M16.1007 9.5185H8.65552V8.95564C8.65552 6.91326 10.3226 5.25684 12.3781 5.25684C14.4336 5.25684 16.1007 6.91326 16.1007 8.95564V9.5185Z" stroke="#E3E3E3" stroke-width="1.4" stroke-miterlimit="10"/>
<path d="M24.7599 22.3917H17.3147V16.5942C17.3147 15.3479 18.3263 14.3428 19.5806 14.3428H22.494C23.7483 14.3428 24.7599 15.3479 24.7599 16.5942V22.3917Z" stroke="#E3E3E3" stroke-width="1.4" stroke-miterlimit="10"/>
<path d="M6.9561 29.1699L4.52832 31.5822" stroke="#E3E3E3" stroke-width="1.4" stroke-miterlimit="10"/>
<path d="M26.9449 31.5822L24.5171 29.1699" stroke="#E3E3E3" stroke-width="1.4" stroke-miterlimit="10"/>
</svg>
