<svg width="32" height="32" viewBox="0 0 32 32" fill="none" xmlns="http://www.w3.org/2000/svg">
<path d="M16.0002 22.0819L17.0864 21.0127H20.1548L21.078 20.0772L23.4675 19.1416" stroke="#E3E3E3" stroke-miterlimit="10" stroke-linecap="round" stroke-linejoin="round"/>
<path d="M16.0002 14.9448H19.0686C19.9104 14.9448 20.6978 15.3992 21.1051 16.1209C21.6211 17.0832 22.2999 17.9386 23.0874 18.7138L23.739 19.3553C24.4722 20.077 24.8795 21.0393 24.8795 22.055V23.6588C24.8795 24.5142 24.1735 25.2092 23.3046 25.2092H16.0002" stroke="#E3E3E3" stroke-miterlimit="10" stroke-linecap="round" stroke-linejoin="round"/>
<path d="M16.0002 24.0064H19.9647C20.725 24.0064 21.3224 24.6212 21.3224 25.3429V25.8507C21.3224 26.3052 21.6754 26.6526 22.137 26.6526H24.0377C24.4994 26.6526 24.8524 26.3052 24.8524 25.8507V23.1777" stroke="#E3E3E3" stroke-miterlimit="10" stroke-linecap="round" stroke-linejoin="round"/>
<path d="M22.7887 18.4199H16.0002" stroke="#E3E3E3" stroke-miterlimit="10" stroke-linecap="round" stroke-linejoin="round"/>
<path d="M20.8066 20.3711L21.5941 21.0928H23.2233C23.6578 21.0928 24.0922 20.9324 24.3909 20.6117L24.5267 20.478" stroke="#E3E3E3" stroke-miterlimit="10" stroke-linecap="round" stroke-linejoin="round"/>
<path d="M22.0281 22.9105L22.3811 22.6699C22.7069 22.456 23.0871 22.3491 23.4672 22.3491H23.956H24.8521" stroke="#E3E3E3" stroke-miterlimit="10" stroke-linecap="round" stroke-linejoin="round"/>
<path d="M23.9563 22.3491V22.8837C23.9563 23.4451 23.4946 23.8995 22.9244 23.8995H22.137" stroke="#E3E3E3" stroke-miterlimit="10" stroke-linecap="round" stroke-linejoin="round"/>
<path d="M22.2996 17.8586V16.9765C22.2996 16.9231 22.3539 16.8696 22.4082 16.8696H23.9831C24.0374 16.8696 24.0917 16.9231 24.0917 16.9765V17.7785C24.0917 17.8319 24.0646 17.8586 24.0102 17.8854L22.7612 18.3932" stroke="#E3E3E3" stroke-miterlimit="10" stroke-linecap="round" stroke-linejoin="round"/>
<path d="M16 22.0819L14.9138 21.0127H11.8726L10.9222 20.0772L8.53271 19.1416" stroke="#E3E3E3" stroke-miterlimit="10" stroke-linecap="round" stroke-linejoin="round"/>
<path d="M16.0001 14.9448H12.9317C12.09 14.9448 11.3025 15.3992 10.8952 16.1209C10.3793 17.0832 9.70045 17.9386 8.91299 18.7138L8.2613 19.3553C7.52815 20.077 7.12085 21.0393 7.12085 22.055V23.6588C7.12085 24.5142 7.82685 25.2092 8.69576 25.2092H15.973" stroke="#E3E3E3" stroke-miterlimit="10" stroke-linecap="round" stroke-linejoin="round"/>
<path d="M16.0001 24.0064H12.0356C11.2753 24.0064 10.6779 24.6212 10.6779 25.3429V25.8507C10.6779 26.3052 10.3249 26.6526 9.86332 26.6526H7.96256C7.50095 26.6526 7.14795 26.3052 7.14795 25.8507V23.1777" stroke="#E3E3E3" stroke-miterlimit="10" stroke-linecap="round" stroke-linejoin="round"/>
<path d="M16.0001 18.4199H9.21167" stroke="#E3E3E3" stroke-miterlimit="10" stroke-linecap="round" stroke-linejoin="round"/>
<path d="M7.50098 20.478L7.63675 20.6117C7.93544 20.9324 8.36989 21.0928 8.80435 21.0928H10.4336L11.221 20.3711" stroke="#E3E3E3" stroke-miterlimit="10" stroke-linecap="round" stroke-linejoin="round"/>
<path d="M7.14795 22.3491H8.04402H8.53279C8.91294 22.3491 9.29309 22.456 9.61894 22.6699L9.97193 22.9105" stroke="#E3E3E3" stroke-miterlimit="10" stroke-linecap="round" stroke-linejoin="round"/>
<path d="M9.86349 23.8995H9.07603C8.5058 23.8995 8.04419 23.4451 8.04419 22.8837V22.3491" stroke="#E3E3E3" stroke-miterlimit="10" stroke-linecap="round" stroke-linejoin="round"/>
<path d="M9.70035 17.8586V16.9765C9.70035 16.9231 9.64604 16.8696 9.59173 16.8696H8.01682C7.96251 16.8696 7.9082 16.9231 7.9082 16.9765V17.7785C7.9082 17.8319 7.93536 17.8586 7.98966 17.8854L9.23873 18.3932" stroke="#E3E3E3" stroke-miterlimit="10" stroke-linecap="round" stroke-linejoin="round"/>
<path d="M29.696 10.5652V6L2.30475 6V10.5652L29.696 10.5652Z" stroke="#E3E3E3" stroke-miterlimit="10" stroke-linecap="round" stroke-linejoin="round"/>
<path d="M4.13029 10.5654V27.0002H2.3042V10.5654" stroke="#E3E3E3" stroke-miterlimit="10" stroke-linecap="round" stroke-linejoin="round"/>
<path d="M29.6957 10.5654V27.0002H27.8696V10.5654" stroke="#E3E3E3" stroke-miterlimit="10" stroke-linecap="round" stroke-linejoin="round"/>
</svg>
